<?xml version="1.0" standalone="no"?>
<!DOCTYPE svg PUBLIC "-//W3C//DTD SVG 20010904//EN"
 "http://www.w3.org/TR/2001/REC-SVG-20010904/DTD/svg10.dtd">
<svg version="1.0" xmlns="http://www.w3.org/2000/svg"
 width="199.000000pt" height="54.000000pt" viewBox="0 0 199.000000 54.000000"
 preserveAspectRatio="xMidYMid meet">

<g transform="translate(0.000000,54.000000) scale(0.100000,-0.100000)"
fill="#000000" stroke="none">
<path d="M0 270 l0 -270 995 0 995 0 0 270 0 270 -995 0 -995 0 0 -270z m1840
180 l0 -39 39 14 c34 12 40 12 45 -2 14 -36 6 -51 -30 -58 l-36 -6 21 -23 c27
-28 26 -41 -1 -60 -21 -15 -23 -14 -41 14 -10 17 -22 30 -26 30 -4 0 -15 -14
-25 -31 -18 -30 -18 -30 -39 -12 -12 10 -24 19 -26 20 -3 2 6 14 18 27 27 29
22 41 -18 49 -29 6 -30 8 -20 36 9 27 13 29 35 20 39 -14 44 -11 44 26 0 32 2
35 30 35 28 0 30 -2 30 -40z m-660 -165 l0 -175 -30 0 -30 0 0 175 0 175 30 0
30 0 0 -175z m130 115 c0 -29 1 -30 50 -30 43 0 50 -3 50 -19 0 -17 -8 -20
-47 -23 l-48 -3 -3 -68 c-4 -82 6 -97 59 -97 35 0 39 -3 39 -25 0 -23 -3 -25
-51 -25 -28 0 -59 5 -69 10 -25 13 -40 69 -40 148 0 55 -2 62 -20 62 -13 0
-20 7 -20 20 0 13 7 20 20 20 16 0 20 7 20 30 0 27 3 30 30 30 27 0 30 -3 30
-30z m339 -49 c14 -9 28 -29 32 -44 7 -25 5 -27 -22 -27 -19 0 -29 5 -29 15 0
23 -36 36 -88 33 -40 -3 -47 -6 -50 -25 -4 -28 20 -39 101 -48 67 -8 97 -30
97 -73 0 -54 -64 -87 -149 -77 -59 7 -101 38 -101 75 0 15 6 20 25 20 14 0 25
-4 25 -9 0 -24 34 -41 79 -41 52 0 76 16 65 43 -6 16 -20 20 -116 32 -75 10
-109 66 -70 115 34 41 150 48 201 11z m-1411 -31 l43 -50 42 49 c34 40 48 50
75 50 17 1 32 -1 32 -3 0 -3 -22 -31 -50 -62 -27 -31 -50 -60 -50 -63 0 -3 23
-33 52 -66 l51 -60 -32 -3 c-27 -3 -38 4 -76 45 l-45 48 -45 -48 c-37 -41 -49
-48 -75 -45 l-31 3 50 57 c28 31 51 63 51 71 0 7 -9 22 -21 33 -12 10 -35 36
-51 57 l-30 37 34 0 c27 0 40 -9 76 -50z m419 24 l33 -25 0 25 c0 22 5 26 30
26 l30 0 0 -135 0 -135 -25 0 c-23 0 -25 4 -25 41 l0 40 -33 -34 c-38 -41 -89
-55 -140 -38 -110 37 -130 183 -34 241 48 29 121 27 164 -6z m193 -62 c0 -109
9 -125 74 -126 71 -1 86 22 86 130 l0 84 30 0 30 0 0 -130 0 -130 -25 0 c-22
0 -25 4 -25 38 l-1 37 -16 -27 c-23 -36 -57 -53 -109 -53 -34 0 -50 6 -71 28
-26 26 -28 33 -31 132 l-4 105 31 0 31 0 0 -88z"/>
<path d="M521 294 c-48 -61 -8 -134 72 -134 62 0 97 29 97 80 0 53 -35 80
-101 80 -39 0 -51 -4 -68 -26z"/>
</g>
</svg>
